HIERARCHY
ROOT Root
{
  OFFSET 0.0 0.0 0.0
  CHANNELS 6 Xposition Yposition Zposition Zrotation Yrotation Xrotation
  JOINT Hips
  {
    OFFSET 0.0 100.0 0.0
    CHANNELS 6 Xposition Yposition Zposition Zrotation Yrotation Xrotation
    JOINT Spine1
    {
      OFFSET -0.013727 5.003763 -0.053727
      CHANNELS 3 Zrotation Yrotation Xrotation
      JOINT Spine2
      {
        OFFSET -0.0 7.125301 -0.029825
        CHANNELS 3 Zrotation Yrotation Xrotation
        JOINT Chest
        {
          OFFSET -1e-06 7.550063 -0.815971
          CHANNELS 3 Zrotation Yrotation Xrotation
          JOINT Neck1
          {
            OFFSET -0.181677 26.311295 -0.553348
            CHANNELS 3 Zrotation Yrotation Xrotation
            JOINT Neck2
            {
              OFFSET -3e-06 7.709397 2.302585
              CHANNELS 3 Zrotation Yrotation Xrotation
              JOINT Head
              {
                OFFSET -5e-06 6.128916 1.953709
                CHANNELS 3 Zrotation Yrotation Xrotation
                JOINT HeadEnd
                {
                  OFFSET 0.003598 16.065403 -1.835379
                  CHANNELS 3 Zrotation Yrotation Xrotation
                }
                JOINT Jaw
                {
                  OFFSET 0.002637 0.475592 3.094941
                  CHANNELS 3 Zrotation Yrotation Xrotation
                }
                JOINT LeftEye
                {
                  OFFSET 3.206381 5.380205 7.586883
                  CHANNELS 3 Zrotation Yrotation Xrotation
                }
                JOINT RightEye
                {
                  OFFSET -3.22244 5.361869 7.558234
                  CHANNELS 3 Zrotation Yrotation Xrotation
                }
              }
            }
          }
          JOINT LeftShoulder
          {
            OFFSET 1.621652 23.237164 5.113413
            CHANNELS 3 Zrotation Yrotation Xrotation
            JOINT LeftArm
            {
              OFFSET 14.919846 2e-06 -5.502326
              CHANNELS 3 Zrotation Yrotation Xrotation
              JOINT LeftForeArm
              {
                OFFSET 28.739307 0.0 -0.002588
                CHANNELS 3 Zrotation Yrotation Xrotation
                JOINT LeftHand
                {
                  OFFSET 27.093981 -1e-06 0.002609
                  CHANNELS 3 Zrotation Yrotation Xrotation
                  JOINT LeftHandThumb1
                  {
                    OFFSET 2.276482 -1.392045 3.191413
                    CHANNELS 3 Zrotation Yrotation Xrotation
                    JOINT LeftHandThumb2
                    {
                      OFFSET 4.012836 -1.828127 1.641654
                      CHANNELS 3 Zrotation Yrotation Xrotation
                      JOINT LeftHandThumb3
                      {
                        OFFSET 2.798515 0.0 -3e-06
                        CHANNELS 3 Zrotation Yrotation Xrotation
                        JOINT LeftHandThumbEnd
                        {
                          OFFSET 3.180793 -4e-06 4e-06
                          CHANNELS 3 Zrotation Yrotation Xrotation
                        }
                      }
                    }
                  }
                  JOINT LeftHandIndex1
                  {
                    OFFSET 3.247555 -0.531998 2.296169
                    CHANNELS 3 Zrotation Yrotation Xrotation
                    JOINT LeftHandIndex2
                    {
                      OFFSET 6.364578 0.01206 0.1786
                      CHANNELS 3 Zrotation Yrotation Xrotation
                      JOINT LeftHandIndex3
                      {
                        OFFSET 3.662364 0.0 0.0
                        CHANNELS 3 Zrotation Yrotation Xrotation
                        JOINT LeftHandIndex4
                        {
                          OFFSET 2.329242 4e-06 4e-06
                          CHANNELS 3 Zrotation Yrotation Xrotation
                          JOINT LeftHandIndexEnd
                          {
                            OFFSET 2.759615 -0.180537 -0.113024
                            CHANNELS 3 Zrotation Yrotation Xrotation
                          }
                        }
                      }
                    }
                  }
                  JOINT LeftHandMiddle1
                  {
                    OFFSET 3.163495 0.240981 1.000332
                    CHANNELS 3 Zrotation Yrotation Xrotation
                    JOINT LeftHandMiddle2
                    {
                      OFFSET 6.19078 -0.259278 -1.002548
                      CHANNELS 3 Zrotation Yrotation Xrotation
                      JOINT LeftHandMiddle3
                      {
                        OFFSET 4.35652 -4e-06 -1e-06
                        CHANNELS 3 Zrotation Yrotation Xrotation
                        JOINT LeftHandMiddle4
                        {
                          OFFSET 2.996877 -8e-06 0.0
                          CHANNELS 3 Zrotation Yrotation Xrotation
                          JOINT LeftHandMiddleEnd
                          {
                            OFFSET 2.304287 -0.294569 -0.031741
                            CHANNELS 3 Zrotation Yrotation Xrotation
                          }
                        }
                      }
                    }
                  }
                  JOINT LeftHandRing1
                  {
                    OFFSET 2.882643 -0.053652 -0.322543
                    CHANNELS 3 Zrotation Yrotation Xrotation
                    JOINT LeftHandRing2
                    {
                      OFFSET 5.854541 -0.486202 -1.373841
                      CHANNELS 3 Zrotation Yrotation Xrotation
                      JOINT LeftHandRing3
                      {
                        OFFSET 4.350578 0.0 3e-06
                        CHANNELS 3 Zrotation Yrotation Xrotation
                        JOINT LeftHandRing4
                        {
                          OFFSET 2.651321 7e-06 2e-06
                          CHANNELS 3 Zrotation Yrotation Xrotation
                          JOINT LeftHandRingEnd
                          {
                            OFFSET 1.936105 0.077687 -7.1e-05
                            CHANNELS 3 Zrotation Yrotation Xrotation
                          }
                        }
                      }
                    }
                  }
                  JOINT LeftHandPinky1
                  {
                    OFFSET 2.8655 -0.310005 -1.600378
                    CHANNELS 3 Zrotation Yrotation Xrotation
                    JOINT LeftHandPinky2
                    {
                      OFFSET 5.087849 -1.331141 -1.77123
                      CHANNELS 3 Zrotation Yrotation Xrotation
                      JOINT LeftHandPinky3
                      {
                        OFFSET 3.070974 4e-06 0.0
                        CHANNELS 3 Zrotation Yrotation Xrotation
                        JOINT LeftHandPinky4
                        {
                          OFFSET 1.549672 0.0 1e-06
                          CHANNELS 3 Zrotation Yrotation Xrotation
                          JOINT LeftHandPinkyEnd
                          {
                            OFFSET 1.944893 -0.157802 0.057219
                            CHANNELS 3 Zrotation Yrotation Xrotation
                          }
                        }
                      }
                    }
                  }
                }
              }
            }
          }
          JOINT RightShoulder
          {
            OFFSET -1.380118 23.180309 5.214158
            CHANNELS 3 Zrotation Yrotation Xrotation
            JOINT RightArm
            {
              OFFSET -15.037196 1.2e-05 -5.545604
              CHANNELS 3 Zrotation Yrotation Xrotation
              JOINT RightForeArm
              {
                OFFSET -28.736639 2e-06 -0.002597
                CHANNELS 3 Zrotation Yrotation Xrotation
                JOINT RightHand
                {
                  OFFSET -27.133619 -0.0 0.002613
                  CHANNELS 3 Zrotation Yrotation Xrotation
                  JOINT RightHandThumb1
                  {
                    OFFSET -2.274032 -1.383988 3.163127
                    CHANNELS 3 Zrotation Yrotation Xrotation
                    JOINT RightHandThumb2
                    {
                      OFFSET -4.011429 -1.827466 1.640914
                      CHANNELS 3 Zrotation Yrotation Xrotation
                      JOINT RightHandThumb3
                      {
                        OFFSET -2.794935 -4e-06 -3e-06
                        CHANNELS 3 Zrotation Yrotation Xrotation
                        JOINT RightHandThumbEnd
                        {
                          OFFSET -3.183852 4e-06 1e-06
                          CHANNELS 3 Zrotation Yrotation Xrotation
                        }
                      }
                    }
                  }
                  JOINT RightHandIndex1
                  {
                    OFFSET -3.253266 -0.520057 2.282866
                    CHANNELS 3 Zrotation Yrotation Xrotation
                    JOINT RightHandIndex2
                    {
                      OFFSET -6.341917 0.012471 0.178266
                      CHANNELS 3 Zrotation Yrotation Xrotation
                      JOINT RightHandIndex3
                      {
                        OFFSET -3.654871 -8e-06 -0.0
                        CHANNELS 3 Zrotation Yrotation Xrotation
                        JOINT RightHandIndex4
                        {
                          OFFSET -2.327586 0.0 1e-06
                          CHANNELS 3 Zrotation Yrotation Xrotation
                          JOINT RightHandIndexEnd
                          {
                            OFFSET -2.76179 -0.180656 -0.113078
                            CHANNELS 3 Zrotation Yrotation Xrotation
                          }
                        }
                      }
                    }
                  }
                  JOINT RightHandMiddle1
                  {
                    OFFSET -3.168106 0.246593 1.00103
                    CHANNELS 3 Zrotation Yrotation Xrotation
                    JOINT RightHandMiddle2
                    {
                      OFFSET -6.180828 -0.258836 -1.000895
                      CHANNELS 3 Zrotation Yrotation Xrotation
                      JOINT RightHandMiddle3
                      {
                        OFFSET -4.348901 0.0 -0.0
                        CHANNELS 3 Zrotation Yrotation Xrotation
                        JOINT RightHandMiddle4
                        {
                          OFFSET -3.00024 -4e-06 -2e-06
                          CHANNELS 3 Zrotation Yrotation Xrotation
                          JOINT RightHandMiddleEnd
                          {
                            OFFSET -2.30252 -0.29437 -0.031706
                            CHANNELS 3 Zrotation Yrotation Xrotation
                          }
                        }
                      }
                    }
                  }
                  JOINT RightHandRing1
                  {
                    OFFSET -2.88569 -0.067952 -0.308858
                    CHANNELS 3 Zrotation Yrotation Xrotation
                    JOINT RightHandRing2
                    {
                      OFFSET -5.854198 -0.48613 -1.373731
                      CHANNELS 3 Zrotation Yrotation Xrotation
                      JOINT RightHandRing3
                      {
                        OFFSET -4.33881 -4e-06 -0.0
                        CHANNELS 3 Zrotation Yrotation Xrotation
                        JOINT RightHandRing4
                        {
                          OFFSET -2.654903 -4e-06 4e-06
                          CHANNELS 3 Zrotation Yrotation Xrotation
                          JOINT RightHandRingEnd
                          {
                            OFFSET -1.933568 0.077527 -5.2e-05
                            CHANNELS 3 Zrotation Yrotation Xrotation
                          }
                        }
                      }
                    }
                  }
                  JOINT RightHandPinky1
                  {
                    OFFSET -2.866425 -0.342796 -1.584145
                    CHANNELS 3 Zrotation Yrotation Xrotation
                    JOINT RightHandPinky2
                    {
                      OFFSET -5.091371 -1.332055 -1.772385
                      CHANNELS 3 Zrotation Yrotation Xrotation
                      JOINT RightHandPinky3
                      {
                        OFFSET -3.062664 -4e-06 1e-06
                        CHANNELS 3 Zrotation Yrotation Xrotation
                        JOINT RightHandPinky4
                        {
                          OFFSET -1.546529 4e-06 -2e-06
                          CHANNELS 3 Zrotation Yrotation Xrotation
                          JOINT RightHandPinkyEnd
                          {
                            OFFSET -1.945119 -0.157718 0.057211
                            CHANNELS 3 Zrotation Yrotation Xrotation
                          }
                        }
                      }
                    }
                  }
                }
              }
            }
          }
        }
      }
    }
    JOINT LeftLeg
    {
      OFFSET 10.043214 -8.434526 2.595655
      CHANNELS 3 Zrotation Yrotation Xrotation
      JOINT LeftShin
      {
        OFFSET -1e-06 -43.221752 -0.802913
        CHANNELS 3 Zrotation Yrotation Xrotation
        JOINT LeftFoot
        {
          OFFSET 1e-06 -42.155094 -3.481523
          CHANNELS 3 Zrotation Yrotation Xrotation
          JOINT LeftToeBase
          {
            OFFSET 0.0 -5.059472 13.231529
            CHANNELS 3 Zrotation Yrotation Xrotation
            JOINT LeftToeEnd
            {
              OFFSET -0.009607 -1.647619 6.513017
              CHANNELS 3 Zrotation Yrotation Xrotation
            }
          }
        }
      }
    }
    JOINT RightLeg
    {
      OFFSET -10.047278 -8.29526 2.620317
      CHANNELS 3 Zrotation Yrotation Xrotation
      JOINT RightShin
      {
        OFFSET 1e-06 -43.362206 -0.805556
        CHANNELS 3 Zrotation Yrotation Xrotation
        JOINT RightFoot
        {
          OFFSET 2e-06 -42.117393 -3.478398
          CHANNELS 3 Zrotation Yrotation Xrotation
          JOINT RightToeBase
          {
            OFFSET -0.0 -5.079609 13.284196
            CHANNELS 3 Zrotation Yrotation Xrotation
            JOINT RightToeEnd
            {
              OFFSET 0.009532 -1.634378 6.460591
              CHANNELS 3 Zrotation Yrotation Xrotation
            }
          }
        }
      }
    }
  }
}
MOTION
Frames: 4
Frame Time: 0.03333333333333333
0.0 0.0 0.0 0.0 -0.0 0.0 -1.681302 98.629135 3.493129 -5.636635 0.396428 2.970618 4.275277 0.27434 0.232755 0.119837 -0.995189 -5.089723 2.384792 -3.208465 8.101323 0.510279 2.307467 3.752746 -1.427348 -0.724564 -3.400655 -2.983407 -0.939501 -4.811643 7.7e-05 -2.2e-05 6e-06 0.021549 -0.050036 -0.048734 0.728552 -3.764797 -10.527716 -0.684868 3.67603 -10.486733 -22.465218 -7.090431 17.316397 -47.08725 -8.115132 16.986734 0.177494 -19.743404 -0.141377 5.474717 2.922523 -2.396685 -5.882108 9.861287 0.702592 -10.936877 -0.360576 7.156203 2e-06 8.77483 -2e-06 -17.177349 17.654989 5.411506 -1.844034 2.498504 -2.507276 -10.163604 4.678946 4.621109 -20.976036 -8e-06 2e-06 -21.226295 2.451695 -3.593996 1e-06 -6e-06 -2e-06 -1.362682 2.240798 -0.746323 -21.334925 0.584905 3.008319 -13.821221 -5e-06 2e-06 -23.887182 -0.249083 -0.839481 -60.599415 2.373268 -1.037715 -0.294024 1.679688 0.833256 -14.218216 0.093212 1.30058 -34.212067 -0.28757 0.967173 -20.033226 0.964531 1.212844 1e-06 2e-06 1e-06 -3.44039 0.788233 0.501655 -15.928192 -3.167313 2.999707 -6.338829 -2e-06 -1e-06 -18.123455 3.648181 -4.90567 -5e-06 0.0 -1e-06 32.153286 8.586039 19.251921 36.953476 3.210996 16.784111 0.095407 17.79286 0.053732 6.003594 2.40796 5.111795 2.243542 -5.255038 -3.180159 14.282903 -0.826592 6.952506 -6e-06 -12.690609 1e-06 16.633247 -17.864346 1.843679 1.665668 -1.955922 -2.878299 4.727801 -4.170588 4.993926 11.020535 6e-06 -1e-06 12.109061 -3.735713 -2.866784 -0.0 1e-06 0.0 1.291986 -1.92855 -1.498091 14.800142 0.567472 3.865608 14.242584 -1.341733 -6.660659 19.631985 0.143931 -0.648242 49.814667 -0.362307 -6.863366 0.353029 -1.511151 -0.03194 20.222811 3.684317 2.316631 18.787291 9e-06 2e-06 10.75164 -0.479866 1.397907 0.0 1e-06 -0.0 3.27381 0.305948 -0.580112 21.486834 11.830386 2.266132 8.162933 4e-06 -1e-06 18.399097 -3.798982 -4.940577 2e-06 0.0 -1e-06 15.837805 13.454947 -8.90175 -0.196996 -0.743806 60.946262 -6.846548 -10.673328 11.115314 1.871895 -1.812363 -9.060977 0.0 0.0 1e-06 7.789717 -12.131365 -18.661087 0.087243 -0.316735 15.083218 1.419436 -2.234874 0.101885 -1.36497 0.986924 -0.876625 -0.0 -0.0 -1e-06 
0.0 0.0 0.0 0.0 -0.0 0.0 -2.027594 99.00985 4.819395 -5.313952 0.581083 2.377771 4.552803 0.368359 0.601168 0.102773 -0.596612 -4.917502 2.052658 -3.025923 8.042111 0.14285 2.587297 3.488952 -1.451319 -1.112183 -3.414078 -2.924246 -0.966525 -5.140501 7.7e-05 -2.3e-05 6e-06 0.014601 -0.086217 -0.063241 0.730773 -3.801162 -10.571472 -0.702435 3.638782 -10.539313 -22.62262 -6.645569 17.088829 -47.314121 -8.077251 17.384705 0.117195 -20.19581 -0.161995 5.292606 2.415005 -2.671163 -5.88211 9.861292 0.702594 -10.936878 -0.360574 7.156211 0.0 8.774831 0.0 -17.072948 17.649334 5.460802 -1.844034 2.498507 -2.507279 -10.163607 4.678949 4.621114 -20.97604 -1e-06 3e-06 -21.226301 2.451701 -3.594002 1e-06 -6e-06 -1e-06 -1.362683 2.2408 -0.746324 -21.334929 0.584912 3.008328 -13.821223 -2e-06 1e-06 -23.887184 -0.249077 -0.839484 -60.598209 2.417441 -1.186956 -0.294025 1.679688 0.833257 -14.218219 0.093215 1.300583 -34.212074 -0.287562 0.967172 -20.033226 0.964539 1.212845 0.0 1e-06 -0.0 -3.440392 0.788234 0.501656 -15.928201 -3.167311 2.99971 -6.338831 -1e-06 1e-06 -18.123459 3.648186 -4.905673 -4e-06 -0.0 -1e-06 31.391386 9.361794 19.601332 36.908146 4.512405 16.717369 0.388911 18.725122 0.134014 5.5448 2.683921 3.777063 2.243542 -5.255037 -3.180159 14.282896 -0.826595 6.952508 -2e-06 -12.690607 -2e-06 16.625317 -17.881477 1.936991 1.665666 -1.955922 -2.878299 4.7278 -4.170588 4.993925 11.02053 2e-06 -1e-06 12.109056 -3.735717 -2.866785 0.0 -0.0 0.0 1.291986 -1.92855 -1.498088 14.800132 0.567468 3.865608 14.242576 -1.341736 -6.660659 19.631973 0.143924 -0.648244 50.017933 -0.406834 -6.864368 0.353029 -1.511151 -0.031941 20.222801 3.684309 2.316632 18.787283 4e-06 0.0 10.751636 -0.479867 1.397904 -0.0 1e-06 -0.0 3.273808 0.305947 -0.58011 21.486822 11.830377 2.266134 8.16293 2e-06 -2e-06 18.399088 -3.798985 -4.940576 1e-06 1e-06 -1e-06 14.654881 13.031111 -12.898028 -0.195321 -0.638132 65.50695 -4.8158 -9.212707 7.783864 1.808912 -1.907602 -5.099813 0.0 -0.0 2e-06 7.341115 -12.327929 -16.101538 0.057133 -0.346707 13.125773 1.277857 -2.348725 0.078611 -1.382593 0.970518 -0.785425 -0.0 -0.0 -1e-06 
0.0 0.0 0.0 0.0 -0.0 0.0 -2.607146 99.312485 7.240613 -4.771492 0.590309 2.109215 4.671654 0.490102 0.829 0.070608 -0.298396 -4.781645 1.568622 -2.764137 7.964371 -0.093964 2.831358 3.265715 -1.479028 -1.429039 -3.428963 -2.905623 -1.100977 -5.353722 7.7e-05 -2.3e-05 6e-06 0.013822 -0.141262 -0.051047 0.73908 -3.856602 -10.591125 -0.713848 3.582811 -10.562512 -22.954082 -6.26467 16.961565 -47.257401 -8.015739 18.132952 0.070643 -20.479485 -0.170605 4.921106 2.116852 -3.128799 -5.882106 9.861286 0.70259 -10.936871 -0.360574 7.156202 0.0 8.774826 0.0 -17.003164 17.735357 5.491413 -1.844032 2.498504 -2.507277 -10.163598 4.678946 4.621109 -20.976023 -3e-06 -0.0 -21.226286 2.451698 -3.593999 -0.0 -6e-06 -1e-06 -1.362681 2.240798 -0.746322 -21.334913 0.584911 3.008324 -13.821213 -2e-06 -1e-06 -23.887171 -0.249077 -0.839483 -60.607403 2.487193 -1.331292 -0.294025 1.679687 0.833255 -14.218208 0.093216 1.30058 -34.212048 -0.28756 0.967168 -20.033215 0.964538 1.212842 1e-06 -0.0 -0.0 -3.440389 0.788234 0.501654 -15.928185 -3.167308 2.999707 -6.338827 -0.0 -0.0 -18.123446 3.648185 -4.90567 -4e-06 0.0 -1e-06 30.698879 10.15516 19.715134 36.805035 5.767937 16.713455 0.574064 20.034594 0.172536 4.990566 2.828606 2.644426 2.243542 -5.255037 -3.180159 14.282892 -0.826593 6.952496 -3e-06 -12.690604 -2e-06 16.573895 -17.842007 2.022749 1.665667 -1.955922 -2.878299 4.727799 -4.170587 4.993921 11.020528 3e-06 -2e-06 12.109053 -3.735714 -2.866785 -0.0 0.0 -0.0 1.291986 -1.92855 -1.49809 14.800132 0.567469 3.865604 14.242577 -1.341736 -6.66066 19.631971 0.143928 -0.648246 50.045063 -0.481313 -6.934393 0.353029 -1.51115 -0.031939 20.222795 3.684312 2.316625 18.787273 8e-06 -5e-06 10.751629 -0.479867 1.397904 1e-06 1e-06 0.0 3.273807 0.305947 -0.58011 21.486818 11.830378 2.266131 8.16293 2e-06 -2e-06 18.399084 -3.798981 -4.940577 2e-06 -1e-06 -1e-06 12.90624 13.019959 -16.962063 -0.200659 -0.473755 67.05912 -2.730124 -8.046388 3.724144 1.791097 -1.91527 -4.287766 -0.0 0.0 1e-06 6.750173 -12.76601 -13.778298 0.06297 -0.382125 12.425671 1.267357 -2.150311 -1.273267 -1.396086 0.964639 -0.644368 0.0 -0.0 -1e-06 
0.0 0.0 0.0 0.0 -0.0 0.0 -3.173364 99.499207 9.612331 -4.256928 0.503682 2.041316 4.71316 0.600223 0.95885 0.055387 -0.028584 -4.682746 1.040881 -2.560009 7.916136 -0.247382 3.004081 3.088595 -1.483555 -1.560559 -3.447788 -2.878892 -1.196271 -5.48802 7.7e-05 -2.3e-05 6e-06 0.01545 -0.171868 -0.035202 0.745088 -3.88816 -10.599161 -0.71804 3.551451 -10.577606 -23.447096 -5.954963 16.860306 -47.003281 -7.999606 19.005083 0.011806 -20.275032 -0.153085 4.64736 1.956704 -3.348094 -5.882106 9.861287 0.702591 -10.936873 -0.360575 7.156204 1e-06 8.774826 -2e-06 -16.947075 17.758049 5.529724 -1.844032 2.498505 -2.507278 -10.163601 4.678946 4.621109 -20.976025 -4e-06 3e-06 -21.226288 2.451697 -3.594 -0.0 -6e-06 -0.0 -1.362681 2.240798 -0.746323 -21.334915 0.58491 3.008324 -13.821215 -3e-06 0.0 -23.887171 -0.24908 -0.839482 -60.603252 2.526149 -1.347957 -0.294023 1.679687 0.833255 -14.218207 0.093215 1.300582 -34.212048 -0.287562 0.967171 -20.033211 0.964536 1.212843 0.0 1e-06 -1e-06 -3.440389 0.788234 0.501657 -15.928189 -3.16731 2.999707 -6.338827 -1e-06 0.0 -18.123447 3.648184 -4.905671 -4e-06 -0.0 -1e-06 30.196978 10.899265 19.687643 36.590668 7.098897 16.559055 0.707915 21.479195 0.210443 4.29279 2.804275 2.1638 2.243542 -5.255038 -3.180158 14.282895 -0.826596 6.952506 -1e-06 -12.690605 -2e-06 16.477015 -17.759777 2.114753 1.665667 -1.955922 -2.8783 4.727801 -4.170588 4.993922 11.02053 1e-06 -2e-06 12.109056 -3.735717 -2.866786 -0.0 -0.0 1e-06 1.291985 -1.928549 -1.49809 14.800132 0.567467 3.865608 14.242578 -1.341737 -6.660659 19.631971 0.143924 -0.648245 50.022346 -0.556727 -6.954533 0.353029 -1.511151 -0.031941 20.222797 3.684307 2.316632 18.787279 3e-06 -3e-06 10.751633 -0.47987 1.397905 -0.0 1e-06 0.0 3.273808 0.305947 -0.580111 21.486818 11.830376 2.266133 8.16293 0.0 -2e-06 18.399088 -3.798985 -4.940578 3e-06 -0.0 -0.0 10.926824 13.174534 -20.829821 -0.168789 -0.297357 65.541367 -1.668514 -7.522514 0.405635 1.779091 -1.904274 -4.258307 0.0 -0.0 0.0 6.225128 -13.207943 -11.903343 0.062684 -0.404038 12.103178 1.310684 -1.885906 -2.747993 -1.407907 0.938775 -0.567842 -0.0 -0.0 -1e-06 
